<?xml version="1.0" encoding="UTF-8"?> <svg xmlns="http://www.w3.org/2000/svg" xmlns:xlink="http://www.w3.org/1999/xlink" width="426" height="274" viewBox="0 0 426 274"><defs><path id="b" d="M67 190h286V16H67z"></path><filter id="a" width="158.4%" height="196%" x="-29.2%" y="-38.2%"><feOffset dy="17" in="SourceAlpha" result="shadowOffsetOuter1"></feOffset><feGaussianBlur in="shadowOffsetOuter1" result="shadowBlurOuter1" stdDeviation="25"></feGaussianBlur><feColorMatrix in="shadowBlurOuter1" result="shadowMatrixOuter1" values="0 0 0 0 0.462745098 0 0 0 0 0.341176471 0 0 0 0 1 0 0 0 0.0276715472 0"></feColorMatrix><feOffset dy="26" in="SourceAlpha" result="shadowOffsetOuter2"></feOffset><feGaussianBlur in="shadowOffsetOuter2" result="shadowBlurOuter2" stdDeviation="10"></feGaussianBlur><feColorMatrix in="shadowBlurOuter2" result="shadowMatrixOuter2" values="0 0 0 0 0.462745098 0 0 0 0 0.341176471 0 0 0 0 1 0 0 0 0.0515461101 0"></feColorMatrix><feMerge><feMergeNode in="shadowMatrixOuter1"></feMergeNode><feMergeNode in="shadowMatrixOuter2"></feMergeNode></feMerge></filter><path id="c" d="M0 0h97.461c12.178 0 22.05 9.872 22.05 22.05v114.66c0 12.178-9.872 22.05-22.05 22.05H22.05C9.872 158.76 0 148.888 0 136.71V0z"></path><filter id="d" width="163.6%" height="147.9%" x="-31.8%" y="-19.5%"><feOffset dy="7" in="SourceAlpha" result="shadowOffsetOuter1"></feOffset><feGaussianBlur in="shadowOffsetOuter1" result="shadowBlurOuter1" stdDeviation="11.5"></feGaussianBlur><feColorMatrix in="shadowBlurOuter1" result="shadowMatrixOuter1" values="0 0 0 0 0.462745098 0 0 0 0 0.341176471 0 0 0 0 1 0 0 0 0.0276715472 0"></feColorMatrix><feOffset dy="12" in="SourceAlpha" result="shadowOffsetOuter2"></feOffset><feGaussianBlur in="shadowOffsetOuter2" result="shadowBlurOuter2" stdDeviation="4.5"></feGaussianBlur><feColorMatrix in="shadowBlurOuter2" result="shadowMatrixOuter2" values="0 0 0 0 0.462745098 0 0 0 0 0.341176471 0 0 0 0 1 0 0 0 0.0515461101 0"></feColorMatrix><feMerge><feMergeNode in="shadowMatrixOuter1"></feMergeNode><feMergeNode in="shadowMatrixOuter2"></feMergeNode></feMerge></filter></defs><g fill="none" fill-rule="evenodd"><path fill="#7657FF" d="M277.49 185.611c.575-1.75 1.054-3.537 1.711-5.264-.581 1.012-.942 2.102-1.352 3.168a100.226 100.226 0 0 0-1.344 3.765c1.316-4.201 2.566-8.42 3.499-12.691.08.42.155.791.223 1.116l-.164 1.54c.052-.324.135-.827.221-1.28.056.253.107.476.155.675l-.009.373.043-.239c.2.8.492 1.581.724 2.377.296 1.034.538 2.08.793 3.121a171.827 171.827 0 0 1-.891-4.724l-.517-1.389c.122-.688.249-1.377.379-2.065.84 4.376 1.603 8.84 3.042 13.116.163.485.28.686.932.636.716-.052 1.42-.282 2.068-.523 1.374-.507 3.155-1.29 3.85-2.459.331-.558.027-1.053-.171-1.613a65.658 65.658 0 0 1-1.068-3.321 68.43 68.43 0 0 1-1.633-6.902c-.003-.128.008-.183.039-.143-.047-.133-.095-.28-.148-.451-.357-2.083-.615-4.178-.895-6.271.18.535.363 1.35.544 2.656-.072-1.42-.264-3.187-.43-5.013-.056-1.623.225-3.316-.544-4.858-.272-.379-.545-.831-1.133-.914-.538-.096-1.07.027-1.571.185l-.42.138-.83.276c-.517.205-1.01.47-1.51.706-.439.274-.876.547-1.313.822-1.359 1.057-2.587 2.178-3.597 3.482-.159.163-.315.33-.473.495-.044.043-.877.748-.886.73-.071-.149.477-.671.565-.778.479-.577.976-1.138 1.504-1.683a17.875 17.875 0 0 1 3.517-2.943c-2.564 1.443-4.534 3.484-6.4 5.502-2.072 2.244-3.991 4.562-5.844 6.932-1.854 2.372-3.58 4.819-5.306 7.258-1.72 2.431-3.422 4.88-4.98 7.385-2.09 3.367-3.977 6.774-5.611 10.309-.03.172-.067.384-.106.597.12.026.174.143.174.335-.095 1.418 3.564.063 4.152-.315l.25-.083c.447-.166.915-.321 1.328-.54-.385.188-.043-.13-.035-.259 0-.047-.03-.059-.126-.032.931-.565 1.598-1.233 1.998-2.13.278-.625.588-1.235.912-1.843.866-1.632 1.821-3.235 2.799-4.823 2.288-3.716 4.72-7.37 7.206-10.998a38.18 38.18 0 0 1-1.823 3.534c1.916-3.166 4.03-6.235 6.276-9.245-.059.376-.119.73-.175 1.046a2.925 2.925 0 0 1-.086.126l.086-.117c-.16.902-.308 1.519-.437 1.584l.225.65c-1.142 5.247-.176-.743-.796.934-.392 1.82-.904 3.636-1.195 5.47-.06.377-.278 1.081.104 1.4.395.325.189.98.12 1.374-.503 1.687-1.028 3.373-1.547 5.06-.623 1.7-1.069 3.458-1.611 5.177.1-.761-.23-.334-.43-.072-.3 2.172-1.072 4.174-1.917 6.236-.847 2.074-1.707 4.147-2.463 6.246-.29.098 1.046-3.503.951-3.982-.707 2.104-1.43 4.206-2.222 6.289-.399 1.054-.802 2.104-1.185 3.161-.216.607-.556 1.295-.568 1.938-2.42 5.268-5.339 10.335-8.676 15.247.462-.703.944-1.413 1.31-2.154.066-.133.235-.392.147-.543-.069-.097-.078-.162-.049-.276.131-.537.442-1.061.698-1.564-2.682 5.308-6.246 10.243-10.586 14.737-2.392 2.17-5.007 4.202-8.097 5.686-.055-.07.058-.232.382-.563-2.277 1.083-3.708 1.445-4.567 1.725-.885.213-1.213.362-1.545.458-1.472.463-3.05.537-4.609.408-.501-.02-1.05-.117-1.667-.22l.713.12c.424.09 1.006.104 1.586.166.58.032 1.164.02 1.602.022l.728-.045c-.212.017-.411.043-.605.063a18.371 18.371 0 0 1-7.433-1.162c-2.037-.777-3.718-2.055-5.046-3.536l.103.052c.271.136.492.324-.286-.556-1.488-1.293-2.359-3.057-3.07-4.71-.082-.082.063-.13.112-.192l.208-.178c2.292-1.9 4.491-4.117 6.049-6.482l-.725 1.093c1.176-1.485 2.324-2.982 3.363-4.537.04-.046.017.007.042-.014.02-.095.04-.188.036-.254 2.309-2.933 3.924-6.26 5.438-9.513.217-.896.647-1.775 1.008-2.636.537-1.281 1.064-2.56 1.558-3.853.972-2.549 1.821-5.11 2.603-7.705.126-.526.204-.94.242-1.192-.448 1.885-1.084 3.731-1.764 5.57l-.254-.44c1.319-4.007.43-.177 1.463-4.066-.358.282-.493.839-.628 1.21-.277.751-.505 1.513-.72 2.28a45.328 45.328 0 0 1-1.644 4.8 52.55 52.55 0 0 1 1.11-3.55l.188-.642c-.06.163-.118.325-.18.485.09-.242.17-.487.252-.727-.025.08-.05.163-.072.242.718-2.176 1.452-4.345 1.988-6.561.035.222.13.142.356-.58.307-1.193.568-2.38.757-3.588.194-1.23.181-2.47.165-3.705.145-1.38.31-2.713.225-4.033.039-.224.09-.355.128-.53.02-.211.072-.511-.047-1.177-.085-.327-.144-.764-.402-1.29a5.924 5.924 0 0 0-1.214-1.905l.138.143c.085.09.224.213.35.384.284.322.59.788.83 1.27.372.622.6 1.318.754 1.996-.08-1.866-.984-3.465-2.78-4.61a8.068 8.068 0 0 0-2.045-.89c1.698.657 3.003 1.845 3.714 3.269-.006.13-.232-.196-.247-.216a12.103 12.103 0 0 0-.676-.852c-.496-.563-1.168-1.092-1.922-1.414a2.77 2.77 0 0 0 .539.349c-3.154-1.978-8.058-.393-11.328 1.546a4.464 4.464 0 0 1-.187.096c.22-.148.446-.288.674-.43-2.55 1.472-4.707 3.453-6.404 5.595l.023-.084c-.1.142-.19.281-.276.417a27.673 27.673 0 0 0-2.296 3.538c.077-.33-.062-.175-.784 1.284.051-.722.607-1.545.976-2.185.552-.95 1.16-1.848 1.818-2.747.5-.746 1.201-1.475 1.866-2.127-.549.567-1.07 1.152-1.633 1.706-.13.15-.666.965-.938.967-.04 0 .553-.994.602-1.067.234-.295.539-.652.91-1.085-1.148.768-2.538 3.399-3.714 5.387.267-.34.02.352.18.228-.1-.006-.401.461-.774 1.172a42.055 42.055 0 0 0-.827 1.94c-.308.923-.615 1.847-.856 2.787-.108.431-.216.865-.3 1.3-.022.108-.19.602-.068.696.333-1.332.7-2.656 1.107-3.974.102-.05-.03.743-.041.8-.135.63-.273 1.26-.4 1.891-3.338 10.348-5.033 20.768-2.489 31.263-.174-.078-.533-.815-.367.404.164.841.403 1.666.676 2.488.201.616.364 1.34 1.077 1.657.165.44.343.875.532 1.31-1.76 1.55-3.588 3.27-5.906 4.257-2.364 1.01-5.175.931-7.363-.348-2.21-1.296-3.736-3.404-4.675-5.465-.568-1.245-.96-2.539-1.368-3.824-.42-1.33-.91-2.643-1.24-3.99a30.336 30.336 0 0 1-.386-1.825c.05-.076.159.104.346.614-.472-3.01-.378-1.566-.45-1.211a39.65 39.65 0 0 1-.442-4.4c.076-.183.166-.424.298 1.124a22.579 22.579 0 0 0-.075-2.028c-.033-.382-.056-.788-.279-1.133a47.007 47.007 0 0 1 .692-8.222c.151-.543.314-.997.463-1.324.501-2.429.776-3.738.902-4.508.414-1.4.883-2.79 1.413-4.166-.195.675-.245 1.106-.05 1.033.43-1.908 1.219-3.734 2.033-5.552 1.26-2.47 2.618-4.889 4.205-7.23a60.857 60.857 0 0 1 3.826-5.052c.187-.22.701-.615.6-.934-.143-.448-1.223-.361-1.612-.335-.795.053-1.651.201-2.354.527-.37.172-.56.415-.8.699a61.183 61.183 0 0 0-1.352 1.65 61.35 61.35 0 0 0-2.414 3.255c-6.093 8.819-9.545 18.818-10.149 28.956-.22 3.727.085 7.457.925 11.126.42 1.84.971 3.663 1.645 5.455.646 1.712 1.348 3.428 2.51 4.955l-.004-.007c.66.98 1.517 1.978 2.696 2.574a12.075 12.075 0 0 0 3.165 1.541c-1.078-.223-1.956-.423-2.94-.917 1.525.827 2.633 1.085 3.474 1.248.427.07.796.11 1.15.147.165.004.326.012.49.019 1.142.169 2.304.216 3.46.14.109.036-.027.096.1.13.266-.028.514-.057.75-.082a13.186 13.186 0 0 0 1.75-.421l.063-.023c3.005-.696 5.629-2.165 7.99-3.909.05-.03.098-.064.147-.1.015.007.023.036.037.053 1.45 2.24 3.105 4.32 5.513 5.946 2.679 1.804 5.907 2.729 9.342 2.903.776.085 1.293.146 1.482.199.117-.041.31-.087.578-.14.086-.012.183-.029.28-.044a33.41 33.41 0 0 0 5.564-.68c1.81-.37 3.511-.933 5.252-1.473 1.012-.35 2.113-.761 3.027-1.266.79-.4 1.319-.663 1.319-.663.902-.262-.08.294-1.6 1.103-.803.343-1.729.775-2.653 1.131-.948.321-1.844.671-2.552.915 2.533-.728 4.93-1.698 7.063-3.05 2.248-1.428 4.29-3.084 6.21-4.799l.672-.685c1.857-1.706 3.564-3.56 5.143-5.494-.082.121-.164.234-.242.353.825-1.034 1.663-2.06 2.598-3.026.862-.893 1.51-1.966 2.114-2.986-.462.565-1.07 1.275-1.737 2.078 1.69-2.357 3.224-4.76 4.634-7.076.469-.703.722-.997.539-.405.861-1.417 1.777-2.918 2.294-4.453.69-1.26 1.356-2.533 1.995-3.818a235.35 235.35 0 0 1-1.244 3.126c.185.033.982-1.539 1.044-1.645.51-1.212.973-2.435 1.44-3.66.747-.997 1.165-2.223 1.694-3.308.313-.625.605-1.255.92-1.879.028-.053.475-.835.523-.756.796-2.057.751-2.431 1.297-4.126.777-1.534 1.388-3.098 1.745-4.739-1.685 4.568-3.65 9.055-5.718 13.513 0-.049.033-.157.087-.301 2.82-6.238 4.98-12.63 7.02-19.07.33-.619-.16 1.526-.127 1.871 1.599-4.582 1.152-4.924 2.56-8.948-.822 3.16-.598 2.607-.063 1.011.26-.8-.535 1.596 0 0m3.545-13.52H281c.005-.033.012-.063.018-.091.007.028.012.061.017.091-.012 0-.005-.03 0 0m-.035 3.378c.041-.195.083-.359.119-.469l-.019.748-.1-.279c.041-.195.032.091 0 0m-1.68.044l-.045.487-.275-.895c.195-1.035.378-2.067.544-3.105h.041c.084.526.171 1.073.265 1.644-.177.5-.44 1.67-.53 1.87m-3.192-3.841l.377-.673c-.053.442-.109.887-.165 1.342L276 173l.128-1.327c.125-.223-.044.447 0 0m-1.709 1.373c.067-.506.138-1.046.213-1.602.111-.144.218-.29.333-.444-.1.605-.2 1.21-.296 1.816-.232 1.06-.449 2.122-.668 3.184-.017-.368.16-1.517.418-2.954.067-.506-.259 1.437 0 0m-58.069 20.796c-.222.312-.359.113-.35-.176.185-.562.381-1.115.586-1.666-.19.622-.294 1.238-.236 1.842-.222.312-.058-.604 0 0m-.113-.842c-.045.25-.137.36-.237.433.077-.146.157-.29.237-.433m-4.784 10c-.155.665-.309 1.33-.453 2 .099-.583.2-1.167.304-1.747.046-.066.094-.145.149-.253m-.111 29.159c.01-.024.028-.033.055-.026a.759.759 0 0 1-.076-.058c-.087-.36-.17-.723-.248-1.085.122.075.221.201.273.428.12-.618.028-1.275-.13-1.878-.132-.527-.285-1.154-.695-1.573l-.002-.03c.155-.78.497.518.766.888a56.29 56.29 0 0 0-.178-1.95c-.11-1.847-.33-3.694-.288-5.542-.477-.044-.302-.287-.632-.678l.175-.244c-.058.084-.227-.068-.362 0 .006-1.305.06-2.61.158-3.912.17.187.339.403.419.686-.274-1.444.299-2.023.196-3.58.254.21.286 1.602.306 1.982.055-.514-.016-1.456.239-1.475l-.332-.135c.068-.92.306.15.56-.127.18-1.733-.642-.94-.926-1.524.041-.296.085-.588.132-.88a.549.549 0 0 0 .047-.296c.035-.21.07-.42.108-.63.107.14.292.087.403.051-.574-.821.304-.861.417-2.206.23.009.14.653.371.766-.015-.418.012-.835-.004-1.252-.002-.242.032-.692-.22-.859.218-.95.603-1.873.777-2.828-.014.15-.073.471.135.55.226.082.305.184.353.409-.21-1.018-.192-2.077-.224-3.104.147-.492.297-.983.452-1.472.091.023.182.075.316.182.754-1.381-.241-.522.34-1.871l-.285.619c.003-.028.002-.054.005-.08.22-.655.446-1.31.68-1.96.101.07.16.185.216-.029-.393-.793.831-1.545 1.012-2.245l-.036.214.592-.757c.012-.007.018.005.028.005a.478.478 0 0 0-.075-.073 3.528 3.528 0 0 0 1.164-1.466c-.06-.182.157-.742.489-1.256.309-.527.63-1.055.612-1.265-.107.308-.248.541-.533.846l-.286-.212c.398-.616.319.11.503-.577-.496-.122-.543.854-.861 1.258-.003-.205.049-.465.176-.756-.127.175-.25.352-.367.527.315-.527.646-1.052.997-1.56.046.07.113.097.24.013.649-.573.571-.82.612-1.187.135-.18.275-.355.416-.53.146-.023.267.028.407-.032.21-.091.374-.276.519-.432-.079.18-.162.36-.241.543-.023.064-.039.103-.039.103.816-.251.27-.584.685-.92-.207.052-.303-.016-.685.437-.18-.05.066-.432.197-.61l-.104.098-.005-.043c.413-.454.846-.887 1.305-1.304.01-.001.02-.007.03-.007l-.11.169c.244-.295.535-.554.777-.773.1-.084.205-.16.306-.243l.013.035a.5.5 0 0 0 .061-.093c.19-.149.375-.3.568-.445 0 .096.062.116.284-.07.082.344-.812.848-1.06.996.383-.233 1.01-.282.436.195.34.059.47-.514.857-.659-.105-.02-.065-.152-.14-.194.209.203 1.193-.616 1.137-.843 0 0-.152.101-.289.21-.088.078-.178.152-.262.233-.154-.153.14-.444.232-.56 2.171-.867 3.735 1.183 4.34 2.796-.17.039-.357-.035-.404.177.094.765.395.603.643.61.407 1.716.164 3.576-.044 5.332-.056-.002-.115-.04-.176-.131-.124.51.033.292.164.237l-.084.763c-.08.02-.17.039-.19-.219-.16.422-.013.497.156.56-.038.463-.086.926-.144 1.39a1.027 1.027 0 0 1-.244.246c-.034.432.016.662.1.807-.032.248-.071.497-.111.744-.033-.126-.098-.214-.26-.214.224.587.119.892.061 1.374-.374 2.025-.867 4.032-1.424 6.024a76.64 76.64 0 0 1-.856 2.855c-.304.95-.723 1.9-.967 2.862-.117.33-.238.66-.357.99-.002-.014-.004-.03-.007-.04-.302.354-.248.48-.194.594-.063.17-.128.337-.191.506-.067-.206-.215-.386-.26-.576-.03.462.065.646.145.87l-.163.419c-.069.035-.132-.025-.198-.02a1.27 1.27 0 0 0 .038.433c-.16.41-.322.82-.487 1.228-.023.006-.052.077-.121.294a130.7 130.7 0 0 1-.96 2.299c-.122.106-.224.162-.296.16a.455.455 0 0 1 .14.198c-.17.39-.335.785-.51 1.173-.186.304-.383.599-.578.896-.5.097.166-.666.17-1.128-.582 1.079-.298.769-.436 1.69-.115.209-.163.538-.202.858-.161.354-.328.7-.493 1.055 0-.04.003-.079-.003-.118-.3.77-.582.247-.708 1.071.116-.085.277-.195.42-.328-.195.41-.39.82-.59 1.229-.11.156-.215.225-.313.057-.19.402-.227.731-.146.872-.11.218-.224.431-.337.644-.084-.355.183-.999-.334-.42l-.015.72c-.177.05-.713.982-.98.806-.146.347-.05.457-.125.759-.29.183-.506.313-.485.73.993-1.305.832-.855 1.598-2.035.022.02.016.058 0 .1-.039.072-.077.147-.117.22-.009.01-.013.02-.021.03l.009-.01a58.808 58.808 0 0 1-1.596 2.788c-.17.046-.123-.349-.213-.454-.546.662-.15.908-.691 1.46.392-1.075-.4.256-.772.479.382-.037.789-.284 1.319-.918a49.576 49.576 0 0 1-2.882 4.13c-.116-.162-.226-.326-.25-.233l.159.347c-.199.253-.393.509-.598.756a45.542 45.542 0 0 1-.788-2.841c.01-.024.156.637 0 0m4.802-2.68l-.144-.166c.248-.354.257-.177.47-.313-.106.161-.22.319-.326.479M255 226c1.428-2.292 2.78-4.62 4-7a97.73 97.73 0 0 1-3.275 5.984c-.19.254-.426.583-.725 1.016m-33-3c.684-.667 1.351-1.333 2-2-.869 1.023-1.476 1.58-2 2m1.062-2.797c-1.238 1.181-1.254.893-.754.144A118.42 118.42 0 0 0 226 216c-1.04 1.39-2.064 2.782-2.938 4.203-1.238 1.181.782-1.272 0 0M231 208.14c.015-.046.034-.093.052-.14a2.186 2.186 0 0 0-.052.14M275 193c.633-1.33 1.265-2.664 1.893-4l.107.668c-1.424 3.029-1.097 1.85-2 3.332.633-1.33.903-1.482 0 0"></path><g fill-rule="nonzero" transform="translate(23 17)"><use fill="#000" filter="url(#a)" xlink:href="#b"></use><use fill="#F7F7F5" xlink:href="#b"></use></g><path fill="#E6E6E6" d="M185 141h76v-9h-76zM185 156h53v-9h-53z"></path><g transform="translate(23 17)"><mask id="e" fill="#fff"><use xlink:href="#c"></use></mask><g fill-rule="nonzero"><use fill="#000" filter="url(#d)" xlink:href="#c"></use><use fill="#7657FF" xlink:href="#c"></use></g><path fill="#FFF" d="M106.512 41.144a3.442 3.442 0 0 0-3.467-3.444H90.69a3.44 3.44 0 0 0-3.468 3.444v76.89a3.441 3.441 0 0 0 3.468 3.445h12.355a3.443 3.443 0 0 0 3.467-3.444v-76.89M12.58 39.618c0-1.099 1.113-1.868 2.113-1.317l58.17 29.905c4.602 2.367 7.23 6.065 7.23 10.335 0 4.269-2.653 7.924-7.12 10.226l-58.28 30.015c-1 .55-2.113-.219-2.113-1.319v-19.24c0-.552.334-1.1.78-1.32l36.48-17.262c1.224-.55 1.224-1.87 0-2.42l-36.48-17.04c-.446-.221-.78-.77-.78-1.322V39.62" mask="url(#e)" transform="rotate(90 59.546 79.59)"></path></g><path fill="#FFF" d="M204.874 81h129.252C342.894 81 350 88.164 350 97s-7.106 16-15.874 16H204.874C196.106 113 189 105.836 189 97s7.106-16 15.874-16z"></path><text fill="#171C26" font-family="MabryPro-Bold, Mabry Pro" font-size="11" font-weight="bold" transform="translate(23 17)"><tspan x="186" y="84">(Logos and assets, ZIP)</tspan></text></g></svg> 