<?xml version="1.0" encoding="UTF-8"?> <svg xmlns="http://www.w3.org/2000/svg" xmlns:xlink="http://www.w3.org/1999/xlink" width="165" height="36" viewBox="0 0 165 36"><defs><path id="a" d="M0 0h182v41H0z"></path></defs><g fill="none" fill-rule="evenodd" transform="translate(-9 -2)"><mask id="b" fill="#fff"><use xlink:href="#a"></use></mask><path fill="#000" d="M104.927 26.115L99.392 5.673c-.479-1.728-1.786-2.81-3.399-2.81-1.481 0-2.876 1.038-3.355 2.767l-5.71 20.485c-.26.822-.958.778-1.089-.086L82.222 3.037a.566.566 0 0 0-.566-.475h-7.713a.555.555 0 0 0-.523.691l7.146 33.537a.827.827 0 0 0 .785.648h7.713c.349 0 .61-.259.741-.605l5.404-19.059c.174-.562 1.002-.562 1.133 0l5.143 19.06c.086.345.392.604.74.604h7.757c.349 0 .654-.259.74-.648l7.148-33.537c.087-.345-.174-.691-.566-.691h-6.93a.566.566 0 0 0-.566.475l-3.792 22.992c-.13.864-.871.908-1.089.086zm-67.286 5.186H12.016a.963.963 0 0 0-.958.951v4.236c0 .518.435.95.958.95h25.625a.963.963 0 0 0 .959-.95v-4.236a.963.963 0 0 0-.96-.95zm2.963-27.918a.539.539 0 0 0-.479-.821h-7.322a.567.567 0 0 0-.523.346l-6.754 14.175a.584.584 0 0 1-1.046 0l-6.711-14.22a.605.605 0 0 0-.523-.301h-7.67c-.436 0-.74.432-.48.907l12.072 22.733c1.046 1.988 2.353 2.636 3.66 2.636 1.308 0 2.616-.648 3.661-2.636l12.115-22.82zM173.434 31.3h-11.68a.575.575 0 0 1-.566-.561V3.123a.575.575 0 0 0-.567-.561h-7.19a.574.574 0 0 0-.567.561v33.754c0 .302.261.561.567.561h20.003c.304 0 .566-.259.566-.561v-5.014a.574.574 0 0 0-.566-.562zM134.256 2c-8.019 0-14.382 5.23-14.382 18.065 0 13.051 6.189 17.935 14.687 17.935 6.755 0 11.636-3.371 12.986-9.638.088-.302-.13-.605-.392-.691l-5.665-1.599c-.348-.086-.654.086-.74.432-.872 3.933-2.746 5.186-5.971 5.186-3.66 0-6.232-2.334-6.363-9.508H147.2c.348 0 .61-.259.61-.561v-3.76C147.809 8.006 142.84 2 134.256 2zm5.447 14.52h-11.287c.087-5.79 2.615-8.47 5.884-8.47 3.747 0 5.447 3.112 5.403 8.47zM56.25 2c-8.716 0-14.468 5.445-14.468 17.978C41.781 32.555 47.533 38 56.249 38c8.672 0 14.382-5.445 14.382-18.022C70.63 7.445 64.92 2 56.249 2zm-.044 29.863c-3.442 0-5.752-2.766-5.752-11.885 0-9.076 2.31-11.841 5.752-11.841 3.487 0 5.753 2.765 5.753 11.841 0 9.12-2.266 11.885-5.753 11.885z" mask="url(#b)"></path></g></svg> 